<svg width="96" height="96" viewBox="0 0 96 96" fill="none" xmlns="http://www.w3.org/2000/svg">
<path d="M0 0H96V96H0V0Z" fill="white"/>
<path d="M19.2891 13.4258C19.2891 10.7565 20.4935 8.73828 22.9023 7.37109C24.0091 6.72005 25.181 6.39453 26.418 6.39453C29.1523 6.39453 31.2031 7.59896 32.5703 10.0078C33.1562 11.1146 33.4492 12.2539 33.4492 13.4258C33.4492 16.1602 32.2448 18.2109 29.8359 19.5781C28.7292 20.1641 27.5898 20.457 26.418 20.457C23.6185 20.457 21.5352 19.2201 20.168 16.7461C19.582 15.7044 19.2891 14.5977 19.2891 13.4258ZM19.9727 77V24.2656H33.0586V77H19.9727ZM39.0156 21.3359H53.5664L67.8242 63.5234L63.4297 77H56.0078L39.0156 21.3359ZM62.2578 34.7148L66.3594 21.3359H80.9102L70.4609 54.6367H69.1914L62.2578 34.7148Z" fill="black"/>
<path d="M70.7959 72.6055C70.7959 70.5221 71.7399 69.0573 73.6279 68.2109C74.279 67.9505 74.93 67.8203 75.5811 67.8203C77.6644 67.8203 79.1292 68.7643 79.9756 70.6523C80.236 71.2383 80.3662 71.8893 80.3662 72.6055C80.3662 74.6888 79.4222 76.1536 77.5342 77C76.8831 77.2604 76.2321 77.3906 75.5811 77.3906C73.4977 77.3906 72.0329 76.4466 71.1865 74.5586C70.9261 73.9076 70.7959 73.2565 70.7959 72.6055Z" fill="black"/>
</svg>
